<?xml version="1.0" encoding="UTF-8"?>
<svg width="177px" height="66px" viewBox="0 0 177 66" version="1.1" xmlns="http://www.w3.org/2000/svg" xmlns:xlink="http://www.w3.org/1999/xlink">
    <!-- Generator: Sketch 40.1 (33804) - http://www.bohemiancoding.com/sketch -->
    <title>编程列车-blue</title>
    <desc>Created with Sketch.</desc>
    <defs></defs>
    <g id="图标icon" stroke="none" stroke-width="1" fill="none" fill-rule="evenodd">
        <g id="Tablet-Portrait" transform="translate(-306.000000, -1250.000000)">
            <g id="编程列车-blue" transform="translate(304.000000, 1215.000000)">
                <text id="codelieche.com" font-family="PingFangSC-Regular, PingFang SC" font-size="12" font-weight="normal" letter-spacing="1.45000005" fill="#4990E2">
                    <tspan x="74" y="94">codelieche.com</tspan>
                </text>
                <text id="编程列车" font-family="PingFangSC-Medium, PingFang SC" font-size="24" font-weight="400" letter-spacing="2.9000001" fill="#4990E2">
                    <tspan x="76" y="77">编程列车</tspan>
                </text>
                <g id="Logo-ICO-03" transform="translate(2.000000, 35.000000)">
                    <g id="Group">
                        <rect id="背景smail" fill="#FFFFFF" x="7.43023256" y="0" width="54.7714286" height="57.8769231" rx="8"></rect>
                        <path d="M7.60714286,15.3010464 L7.60714286,7.99571224 C7.60714286,3.57980231 11.1816528,0 15.5998756,0 L55.4001244,0 C59.8143888,0 63.3928571,3.58621569 63.3928571,7.99571224 L63.3928571,15.3010464 L63.3928571,25.3846154 L65.9285714,25.3846154 L65.9285714,17.7692308 L66.0028576,17.7692308 C68.7627031,17.7692308 71,20.0101055 71,22.7717872 L71,22.9205205 C71,25.6833561 68.7615505,27.9230769 66.0028576,27.9230769 L65.8542853,27.9230769 C64.9593786,27.9230769 64.119415,27.6874616 63.3928571,27.2748751 L63.3928571,50.3889031 C63.3928571,53.9437724 61.0764048,56.9568042 57.8681225,57.9966478 C58.1576917,58.5495192 58.3214286,59.1781697 58.3214286,59.8446471 L58.3214286,62.0015067 C58.3214286,64.2098136 56.5314373,66 54.3127029,66 L52.1872971,66 C49.9733391,66 48.1785714,64.2080694 48.1785714,62.0015067 L48.1785714,59.8446471 C48.1785714,59.3293982 48.2760179,58.8369116 48.4536203,58.3846154 L24.0669277,58.3846154 C24.2450472,58.8370148 24.3428571,59.3295328 24.3428571,59.8446471 L24.3428571,62.0015067 C24.3428571,64.2098136 22.5528659,66 20.3341314,66 L18.2087257,66 C15.9947676,66 14.2,64.2080694 14.2,62.0015067 L14.2,59.8446471 C14.2,59.3009688 14.3084966,58.7826339 14.5051763,58.3101175 C10.6088449,57.7753928 7.60714286,54.4274415 7.60714286,50.3889031 L7.60714286,27.2748751 C6.88058502,27.6874616 6.04062139,27.9230769 5.14571471,27.9230769 L4.99714243,27.9230769 C2.2384495,27.9230769 0,25.6833561 0,22.9205205 L0,22.7717872 C0,20.0101055 2.23729687,17.7692308 4.99714243,17.7692308 L5.07142857,17.7692308 L5.07142857,25.3846154 L7.60714286,25.3846154 L7.60714286,15.3010464 Z M10.1428571,13.0739318 C10.1428571,8.65730583 13.7291929,5.07692308 18.1507018,5.07692308 L52.8492982,5.07692308 C57.2719087,5.07692308 60.8571429,8.66007912 60.8571429,13.0739318 L60.8571429,22.4645298 C60.8571429,26.8811557 57.2708071,30.4615385 52.8492982,30.4615385 L18.1507018,30.4615385 C13.7280913,30.4615385 10.1428571,26.8783824 10.1428571,22.4645298 L10.1428571,13.0739318 Z M25.3571429,1.01538462 L45.6428571,1.01538462 L45.6428571,2.03076923 L25.3571429,2.03076923 L25.3571429,1.01538462 Z" id="Combined-Shape" fill="#4990E2"></path>
                        <text id="CODE" font-family="PingFangSC-Semibold, PingFang SC" font-size="13" font-weight="500" letter-spacing="1.57083344" fill="#4990E2">
                            <tspan x="14.8604651" y="24.075">CODE</tspan>
                        </text>
                        <g id="line" transform="translate(18.764286, 35.030769)" fill="#FFFFFF">
                            <polyline id="Line" points="14.1883523 11.0822936 19.0955337 5.80685109 18.5675134 4.81620563 13.1356128 10.3561899 13.614815 10.7873612"></polyline>
                            <polyline id="Line" points="17.8789543 5.96201116 24.0556532 9.78946395 25.0643988 8.95606968 18.6870828 4.76330342 17.8789543 5.63426813"></polyline>
                            <polygon id="Line" points="33.2731457 2.23252721 32.4018005 0.836855932 23.4158806 9.13112361 24.434248 10.2257074"></polygon>
                            <polyline id="Line" points="1.07828247 16.0484418 8.38950354 6.76602245 7.08993015 6.15633217 0 15.2943343 0.483038593 15.6859416"></polyline>
                            <path d="M6.7853279,7.34537222 C9.0831022,8.53069682 13.41636,10.6339964 13.41636,10.6339964 L14.3582966,9.87174988 L7.15588873,6.15633217 L6.7853279,6.68732291 C6.7853279,6.68732291 6.68229956,7.29222425 6.7853279,7.34537222 Z" id="Line"></path>
                            <ellipse id="Oval-2" cx="31.7864055" cy="2.24084881" rx="2.1921659" ry="2.24084881"></ellipse>
                        </g>
                    </g>
                </g>
            </g>
        </g>
    </g>
</svg>