<?xml version="1.0" encoding="UTF-8"?>
<svg width="187px" height="82px" viewBox="0 0 187 82" version="1.1" xmlns="http://www.w3.org/2000/svg" xmlns:xlink="http://www.w3.org/1999/xlink">
    <!-- Generator: Sketch 40.1 (33804) - http://www.bohemiancoding.com/sketch -->
    <title>看板02-02</title>
    <desc>Created with Sketch.</desc>
    <defs></defs>
    <g id="图标icon" stroke="none" stroke-width="1" fill="none" fill-rule="evenodd">
        <g id="Tablet-Portrait" transform="translate(-65.000000, -1095.000000)">
            <g id="看板02-02" transform="translate(64.000000, 1067.000000)">
                <text id="kanban" font-family="PingFangSC-Medium, PingFang SC" font-size="28" font-weight="400" letter-spacing="0.732307673" fill="#4990E2">
                    <tspan x="90" y="94">kanba</tspan>
                    <tspan x="173.713538" y="94" letter-spacing="0.788639009">n</tspan>
                </text>
                <g id="Logo-ICO-03" transform="translate(1.000000, 28.000000)">
                    <g id="Group">
                        <rect id="背景smail" fill="#FFFFFF" x="9.20930233" y="0" width="67.8857143" height="71.9076923" rx="8"></rect>
                        <path d="M9.42857143,18.7871264 L9.42857143,8.0051813 C9.42857143,3.58404175 13.000394,0 17.4276822,0 L70.5723178,0 C74.9901047,0 78.5714286,3.57245143 78.5714286,8.0051813 L78.5714286,18.7871264 L78.5714286,31.5384615 L81.7142857,31.5384615 L81.7142857,22.0769231 L82.9953165,22.0769231 C85.7593269,22.0769231 88,24.3177644 88,27.0809763 L88,29.6882545 C88,32.4519168 85.7524805,34.6923077 82.9953165,34.6923077 L80.4332549,34.6923077 C79.7752655,34.6923077 79.146934,34.5653177 78.5714286,34.3345212 L78.5714286,64.5332802 C78.5714286,68.4113512 75.8231994,71.645343 72.1600323,72.3813211 C72.2420791,72.6995732 72.2857143,73.0329665 72.2857143,73.3762019 L72.2857143,78.0084135 C72.2857143,80.2129058 70.4978859,82 68.2907625,82 L63.7092375,82 C61.5028865,82 59.7142857,80.2059205 59.7142857,78.0084135 L59.7142857,73.3762019 C59.7142857,73.0888522 59.7446617,72.8085943 59.8023828,72.5384615 L30.0828543,72.5384615 C30.1408841,72.8087499 30.1714286,73.0890312 30.1714286,73.3762019 L30.1714286,78.0084135 C30.1714286,80.2129058 28.3836002,82 26.1764768,82 L21.5949518,82 C19.3886008,82 17.6,80.2059205 17.6,78.0084135 L17.6,73.3762019 C17.6,73.0888522 17.630376,72.8085943 17.6880971,72.5384615 L17.4276822,72.5384615 C13.0098953,72.5384615 9.42857143,68.9660101 9.42857143,64.5332802 L9.42857143,34.3345212 C8.85306601,34.5653177 8.22473448,34.6923077 7.56674506,34.6923077 L5.00468351,34.6923077 C2.24751949,34.6923077 0,32.4519168 0,29.6882545 L0,27.0809763 C0,24.3177644 2.24067313,22.0769231 5.00468351,22.0769231 L6.28571429,22.0769231 L6.28571429,31.5384615 L9.42857143,31.5384615 L9.42857143,18.7871264 Z M12.5714286,14.3069487 C12.5714286,9.88908137 16.1538004,6.30769231 20.5642271,6.30769231 L67.4357729,6.30769231 C71.8500736,6.30769231 75.4285714,9.89484916 75.4285714,14.3069487 L75.4285714,29.8468975 C75.4285714,34.2647648 71.8461996,37.8461538 67.4357729,37.8461538 L20.5642271,37.8461538 C16.1499264,37.8461538 12.5714286,34.258997 12.5714286,29.8468975 L12.5714286,14.3069487 Z M31.4285714,1.26153846 L56.5714286,1.26153846 L56.5714286,2.52307692 L31.4285714,2.52307692 L31.4285714,1.26153846 Z" id="Combined-Shape" fill="#4990E2"></path>
                        <text id="CODE" font-family="PingFangSC-Semibold, PingFang SC" font-size="16" font-weight="500" letter-spacing="1.93333364" fill="#4990E2">
                            <tspan x="18.4186047" y="28.4321301">CODE</tspan>
                        </text>
                        <g id="line" transform="translate(23.257143, 43.523077)" fill="#FFFFFF">
                            <polyline id="Line" points="17.5855635 13.7689102 23.6677038 7.21457256 23.013256 5.98377063 16.2807595 12.8667814 16.8747003 13.4024791"></polyline>
                            <polyline id="Line" points="22.1598307 7.4073472 29.8154574 12.1626673 31.0657338 11.1272381 23.1614548 5.91804364 22.1598307 7.00015131"></polyline>
                            <polygon id="Line" points="41.2399553 2.77374592 40.1599781 1.0397301 29.0224998 11.3447293 30.2847018 12.7046668"></polygon>
                            <polyline id="Line" points="1.33646278 19.9389732 10.3982579 8.40627032 8.78751906 7.64877634 0 19.0020517 0.598695721 19.4885942"></polyline>
                            <path d="M8.40998388,9.12606851 C11.2579295,10.5987445 16.6287279,13.2119349 16.6287279,13.2119349 L17.7961987,12.2649014 L8.86927054,7.64877634 L8.40998388,8.3084921 C8.40998388,8.3084921 8.28228678,9.06003619 8.40998388,9.12606851 Z" id="Line"></path>
                            <ellipse id="Oval-2" cx="39.397235" cy="2.78408488" rx="2.71705069" ry="2.78408488"></ellipse>
                        </g>
                    </g>
                </g>
            </g>
        </g>
    </g>
</svg>