<?xml version="1.0" encoding="UTF-8"?>
<svg width="166px" height="166px" viewBox="0 0 166 166" version="1.1" xmlns="http://www.w3.org/2000/svg" xmlns:xlink="http://www.w3.org/1999/xlink">
    <!-- Generator: Sketch 40.1 (33804) - http://www.bohemiancoding.com/sketch -->
    <title>Logo ICO-03</title>
    <desc>Created with Sketch.</desc>
    <defs></defs>
    <g id="图标icon" stroke="none" stroke-width="1" fill="none" fill-rule="evenodd">
        <g id="Tablet-Portrait" transform="translate(-568.000000, -1028.000000)">
            <g id="Logo-ICO-03" transform="translate(568.000000, 1028.000000)">
                <rect id="背景" fill="#FFFFFF" x="0" y="0" width="166" height="166"></rect>
                <g id="Group" transform="translate(13.000000, 18.000000)">
                    <rect id="背景smail" fill="#FFFFFF" x="15" y="0" width="108" height="114" rx="8"></rect>
                    <path d="M15,29.5 L15,7.99527322 C15,3.57960575 18.5818,0 22.9995348,0 L117.000465,0 C121.418486,0 125,3.58373547 125,7.99527322 L125,29.5 L125,50 L130,50 L130,35 L135.004747,35 C137.763549,35 140,37.236038 140,39.9952534 L140,50.0047466 C140,52.7635489 137.763962,55 135.004747,55 L125,55 L125,107.004727 C125,111.420394 121.4182,115 117.000465,115 L115,115 L115,126.00077 C115,128.209484 113.207532,130 111.00077,130 L98.99923,130 C96.7905162,130 95,128.207532 95,126.00077 L95,115 L48,115 L48,126.00077 C48,128.209484 46.2075324,130 44.00077,130 L31.99923,130 C29.7905162,130 28,128.207532 28,126.00077 L28,115 L22.9995348,115 C18.5815137,115 15,111.416265 15,107.004727 L15,55 L4.99525338,55 C2.23603796,55 0,52.7635489 0,50.0047466 L0,39.9952534 C0,37.236038 2.23645112,35 4.99525338,35 L10,35 L10,50 L15,50 L15,29.5 Z M20,18.0056329 C20,13.584244 23.5885365,10 27.9933542,10 L112.006646,10 C116.421253,10 120,13.575811 120,18.0056329 L120,51.9943671 C120,56.415756 116.411463,60 112.006646,60 L27.9933542,60 C23.5787466,60 20,56.424189 20,51.9943671 L20,18.0056329 Z M50,2 L90,2 L90,4 L50,4 L50,2 Z" id="Combined-Shape" fill="#4990E2"></path>
                    <text id="CODE" font-family="PingFangSC-Semibold, PingFang SC" font-size="26" font-weight="500" letter-spacing="3.14166689" fill="#4990E2">
                        <tspan x="29" y="43">CODE</tspan>
                    </text>
                    <g id="line" transform="translate(37.000000, 69.000000)" fill="#FFFFFF">
                        <polyline id="Line" points="27.9770328 21.8287601 37.6531651 11.437737 36.6119983 9.48646564 25.9012083 20.3985559 26.8461141 21.2478327"></polyline>
                        <polyline id="Line" points="35.2542761 11.7433553 47.4336823 19.2822775 49.4227583 17.6407433 36.8477689 9.38226431 35.2542761 11.0978009"></polyline>
                        <polygon id="Line" points="65.6090198 4.39740207 63.8908743 1.64835259 46.1721588 17.9855465 48.1802074 20.1415449"></polygon>
                        <polyline id="Line" points="2.12619078 31.6105672 16.542683 13.3270139 13.980144 12.1261088 0 30.125204 0.952470465 30.8965517"></polyline>
                        <path d="M13.3795198,14.4681574 C17.9103424,16.8028877 26.4547945,20.9457505 26.4547945,20.9457505 L28.3121342,19.4443558 L14.1102031,12.1261088 L13.3795198,13.1719997 C13.3795198,13.1719997 13.1763653,14.363472 13.3795198,14.4681574 Z" id="Line"></path>
                        <ellipse id="Oval-2" cx="62.6774194" cy="4.4137931" rx="4.32258065" ry="4.4137931"></ellipse>
                    </g>
                </g>
            </g>
        </g>
    </g>
</svg>